<?xml version="1.0" encoding="UTF-8"?>
<svg width="50px" height="56px" viewBox="0 0 50 56" version="1.1" xmlns="http://www.w3.org/2000/svg" xmlns:xlink="http://www.w3.org/1999/xlink">
    <title>noun_excel_3376627</title>
    <g id="Normas" stroke="none" stroke-width="1" fill="none" fill-rule="evenodd">
        <g id="mockup_Normas" transform="translate(-548.000000, -638.000000)" fill="#4B4B4B" fill-rule="nonzero">
            <g id="Group" transform="translate(548.000000, 638.000000)">
                <path d="M30.0850244,0 C30.8309457,0 31.5463161,0.294999152 32.0737622,0.82010101 L41.6762378,10.379899 C42.2036839,10.9050008 42.5,11.6171918 42.5,12.359798 L42.5,22.0888889 L50,22.0888889 L50,43.2444444 L42.5,43.2444444 L42.5,53.2 C42.5,54.7463973 41.2408009,56 39.6875,56 L2.8125,56 C1.25919913,56 0,54.7463973 0,53.2 L0,2.8 C0,1.2536027 1.25919913,0 2.8125,0 L30.0850244,0 Z M29.0625,1.86666667 L2.8125,1.86666667 C2.29473306,1.86666667 1.875,2.28453424 1.875,2.8 L1.875,53.2 C1.875,53.7154658 2.29473306,54.1333333 2.8125,54.1333333 L39.6875,54.1333333 C40.2052669,54.1333333 40.625,53.7154658 40.625,53.2 L40.625,43.2444444 L12.8125,43.2444444 L12.8125,22.0888889 L40.625,22.0888889 L40.625,14 L30,14 C29.4822331,14 29.0625,13.5821324 29.0625,13.0666667 L29.0625,13.0666667 L29.0625,1.86666667 L29.0625,1.86666667 Z M48.125,23.9555556 L14.6875,23.9555556 L14.6875,41.3777778 L48.125,41.3777778 L48.125,23.9555556 Z M40.0354004,28.166493 C40.4992699,28.166493 40.9417704,28.22118 41.3629151,28.3305556 C41.7840598,28.4399311 42.2245257,28.5938648 42.6843262,28.7923611 L42.0739746,30.2567708 C41.597898,30.0623254 41.2042252,29.9266208 40.8929443,29.8496527 C40.5816635,29.7726848 40.2754735,29.7342014 39.9743653,29.7342014 C39.6162905,29.7342014 39.3416351,29.8172446 39.1503906,29.9833333 C38.9591462,30.1494221 38.8635254,30.3661445 38.8635254,30.633507 C38.8635254,30.7995957 38.9021806,30.9444149 38.9794922,31.0679688 C39.0568038,31.1915226 39.1798901,31.3110237 39.3487549,31.4264757 C39.5176197,31.5419276 39.9173959,31.7495356 40.5480957,32.0493056 C41.382247,32.4462983 41.9539372,32.8442978 42.2631836,33.243316 C42.5724299,33.6423342 42.7270508,34.1314786 42.7270508,34.7107639 C42.7270508,35.5128512 42.4371367,36.1447893 41.8572998,36.6065972 C41.2774629,37.0684051 40.4707897,37.2993056 39.4372559,37.2993056 C38.4851027,37.2993056 37.6428259,37.1210666 36.9104004,36.7645833 L36.9104004,35.0145833 C37.5126169,35.2819458 38.0222554,35.470312 38.4393311,35.5796875 C38.8564067,35.6890631 39.2378726,35.74375 39.5837403,35.74375 C39.9987814,35.74375 40.3171783,35.6647577 40.5389404,35.5067708 C40.7607026,35.3487839 40.871582,35.1138326 40.871582,34.8019097 C40.871582,34.627719 40.8227544,34.4727727 40.7250976,34.337066 C40.6274409,34.2013593 40.4840097,34.0707182 40.2947998,33.9451389 C40.1055899,33.8195596 39.720055,33.6190407 39.1381836,33.3435764 C38.5929335,33.0883668 38.184002,32.8432882 37.9113769,32.6083333 C37.6387519,32.3733784 37.421062,32.0999437 37.2583008,31.7880208 C37.0955396,31.476098 37.0141601,31.1115183 37.0141601,30.6942708 C37.0141601,29.9083873 37.2816949,29.2906273 37.8167724,28.8409722 C38.35185,28.3913172 39.0913853,28.166493 40.0354004,28.166493 Z M23.2141113,28.2940972 L25.1367188,31.4902778 L27.0227051,28.2940972 L29.0612793,28.2940972 L26.2597656,32.6994792 L29.2749024,37.1777778 L27.1142578,37.1777778 L25.0390625,33.8175347 L22.9638672,37.1777778 L20.9375,37.1777778 L23.8977051,32.5961806 L21.126709,28.2940972 L23.2141113,28.2940972 Z M32.2900391,28.2940972 L32.2900391,35.6222222 L35.9094238,35.6222222 L35.9094238,37.1777778 L30.3979492,37.1777778 L30.3979492,28.2940972 L32.2900391,28.2940972 Z M40.3504126,11.6998317 L30.9375,2.32897778 L30.9375,12.1333333 L40.59704,12.1335448 C40.5561761,11.9707471 40.4715952,11.8204756 40.3504126,11.6998317 Z" id="Shape"></path>
            </g>
        </g>
    </g>
</svg>